<?xml version="1.0" standalone="no"?>
<!DOCTYPE svg PUBLIC "-//W3C//DTD SVG 20010904//EN"
 "http://www.w3.org/TR/2001/REC-SVG-20010904/DTD/svg10.dtd">
<svg version="1.0" xmlns="http://www.w3.org/2000/svg"
 width="560.000000pt" height="560.000000pt" viewBox="0 0 560.000000 560.000000"
 preserveAspectRatio="xMidYMid meet">
<metadata>
Created by potrace 1.14, written by Peter Selinger 2001-2017
</metadata>
<g transform="translate(0.000000,560.000000) scale(0.100000,-0.100000)"
fill="#000000" stroke="none">
<path d="M4480 5484 c-843 -119 -4184 -584 -4197 -584 -2 0 -3 -944 -3 -2099
l0 -2099 33 -6 c17 -3 356 -50 752 -105 396 -55 1222 -170 1835 -255 613 -86
1392 -194 1730 -241 338 -47 630 -88 648 -91 l32 -6 0 2801 c0 2235 -3 2801
-12 2800 -7 -1 -375 -52 -818 -115z m-3212 -1642 c164 -376 200 -452 215 -450
14 2 69 116 219 456 l201 452 78 0 79 0 0 -792 0 -793 -89 -32 c-49 -17 -92
-29 -95 -25 -3 3 -6 255 -6 561 l-1 556 -157 -310 -157 -310 -74 -18 c-40 -10
-75 -16 -77 -15 -2 2 -56 116 -120 253 -64 138 -131 279 -148 315 l-31 65 -5
-684 -5 -684 -85 -29 c-46 -15 -88 -28 -92 -28 -4 0 -8 443 -8 985 l0 986 81
-3 80 -3 197 -453z m1652 378 l0 -80 -224 -2 -225 -3 -5 -232 c-4 -209 -3
-233 12 -233 17 0 325 58 355 66 15 5 17 -3 17 -80 0 -81 -1 -86 -22 -91 -13
-3 -99 -22 -193 -43 l-170 -38 -3 -232 c-2 -178 0 -232 10 -232 7 0 105 29
219 65 113 36 212 65 218 65 8 0 11 -23 9 -77 l-3 -78 -315 -107 c-173 -59
-318 -108 -322 -108 -5 0 -8 342 -8 760 l0 760 325 0 325 0 0 -80z m576 53
c55 -30 109 -94 134 -160 35 -93 43 -183 37 -423 -5 -232 -13 -284 -57 -370
-22 -43 -84 -106 -125 -128 -23 -12 -430 -152 -442 -152 -2 0 -3 284 -3 631
l0 630 208 -3 c191 -3 210 -5 248 -25z m502 -455 l-3 -481 -67 -23 -68 -23 0
505 0 504 70 0 70 0 -2 -482z m496 465 c28 -97 166 -727 159 -733 -18 -16
-107 -40 -113 -30 -3 5 -14 53 -25 105 -10 53 -22 98 -26 101 -13 8 -161 -33
-170 -47 -4 -6 -12 -39 -19 -73 -6 -34 -18 -91 -26 -127 l-15 -65 -70 -23
c-39 -12 -72 -21 -75 -19 -2 3 44 212 103 466 l107 462 82 0 c70 0 83 -3 88
-17z m186 -1025 l0 -103 -298 -101 -297 -101 -3 -297 c-1 -163 0 -296 2 -296
6 0 447 90 474 97 22 5 22 4 22 -96 0 -56 -1 -101 -3 -101 -5 0 -449 -89 -474
-95 l-23 -5 0 -340 0 -340 300 0 300 0 0 -90 0 -90 -390 0 -390 0 0 898 0 897
383 132 c210 72 385 132 390 132 4 1 7 -45 7 -101z m-1093 -330 c83 -55 106
-150 101 -423 -3 -185 -4 -192 -31 -247 -59 -121 -152 -177 -404 -244 -10 -3
-13 -83 -13 -359 l0 -355 -85 0 -85 0 0 769 0 769 43 16 c248 94 291 106 363
103 57 -2 79 -7 111 -29z m-834 -237 c46 -28 92 -121 107 -211 5 -36 10 -221
10 -411 0 -440 -14 -536 -96 -656 -41 -60 -91 -95 -164 -117 -139 -41 -262 -1
-314 102 -48 96 -51 131 -51 542 l0 385 27 81 c50 147 142 241 286 291 80 28
143 26 195 -6z m-766 -260 c74 -34 113 -127 113 -271 l0 -57 -75 -16 c-42 -10
-80 -17 -85 -17 -6 0 -10 24 -10 53 0 63 -16 125 -38 151 -25 27 -93 17 -140
-21 -76 -62 -102 -158 -102 -378 1 -242 22 -378 66 -422 23 -22 31 -25 72 -19
96 13 138 76 148 224 7 89 8 93 33 98 14 3 42 10 61 15 73 19 73 19 65 -73
-21 -267 -93 -371 -283 -408 -171 -34 -268 25 -303 185 -19 86 -19 570 0 645
40 161 133 257 301 311 71 23 125 23 177 0z m-726 -254 c46 -31 76 -78 90
-143 15 -65 12 -69 -60 -79 -25 -3 -53 -8 -62 -11 -13 -4 -17 5 -22 42 -3 28
-13 54 -25 67 -19 19 -23 19 -58 6 -56 -21 -78 -58 -82 -137 -3 -55 0 -72 15
-90 17 -22 27 -24 120 -25 93 -2 104 -4 128 -27 44 -40 55 -79 55 -193 0 -159
-32 -237 -112 -278 -90 -46 -222 -31 -286 33 -45 43 -63 80 -69 143 l-6 53 52
11 c86 18 89 17 96 -36 11 -73 27 -93 78 -93 34 0 49 6 68 26 21 22 24 37 27
109 4 74 2 85 -18 105 -17 17 -28 20 -53 14 -17 -3 -59 -7 -93 -7 -116 -1
-147 44 -148 218 -1 101 1 114 26 161 51 97 142 152 254 153 37 1 60 -5 85
-22z"/>
<path d="M3220 3701 l0 -442 23 6 c58 17 156 70 189 102 66 64 73 103 73 383
0 241 0 246 -25 295 -34 67 -69 86 -175 93 l-85 5 0 -442z"/>
<path d="M4387 4013 c-29 -129 -39 -185 -34 -189 4 -5 64 8 104 21 9 3 8 18
-2 62 -7 32 -18 84 -25 116 -6 31 -15 57 -20 57 -5 0 -15 -30 -23 -67z"/>
<path d="M3313 2752 l-73 -27 0 -258 0 -257 28 6 c107 23 168 48 203 83 49 48
59 91 59 244 0 141 -10 180 -55 215 -36 28 -73 27 -162 -6z"/>
<path d="M2530 2528 c-55 -28 -83 -74 -107 -178 -15 -64 -18 -123 -17 -405 1
-369 8 -430 54 -477 23 -22 38 -28 72 -28 86 0 138 58 164 182 22 102 15 754
-9 838 -25 90 -72 110 -157 68z"/>
</g>
</svg>
