<svg width="18" height="14" viewBox="0 0 18 14" fill="none" xmlns="http://www.w3.org/2000/svg">
<path d="M17.9931 1.21444C17.7434 3.67497 16.6634 9.64325 16.1146 12.3981C15.8833 13.5634 15.4246 13.9539 14.9824 13.993C14.0194 14.0766 13.2888 13.3954 12.3558 12.8231C10.8964 11.9258 10.0729 11.3663 8.658 10.4907C7.0215 9.47887 8.08121 8.92208 9.0122 8.01289C9.25801 7.77401 13.4997 4.15455 13.581 3.82666C13.5926 3.78578 13.6014 3.63136 13.5055 3.55053C13.4059 3.46969 13.2636 3.49875 13.162 3.51873C13.0158 3.55052 10.6855 4.99742 6.16987 7.85758C5.50695 8.28356 4.90886 8.49066 4.37272 8.48067C3.78044 8.46795 2.64332 8.16639 1.79556 7.90753C0.758113 7.59145 -0.0664225 7.42343 0.00422444 6.88663C0.0419674 6.60598 0.45327 6.31988 1.23716 6.02742C6.07019 4.05191 9.29092 2.74944 10.9042 2.11909C15.5069 0.322518 16.464 0.00915481 17.0863 7.20305e-05C17.2247 -0.00174452 17.5305 0.0300499 17.7289 0.180824C17.8973 0.307983 17.9428 0.479638 17.966 0.602255C17.9873 0.723056 18.0124 0.999183 17.9931 1.21444Z" fill="#ffffff"/>
</svg>
