<svg width="320" height="310" viewBox="0 0 320 310" fill="none" xmlns="http://www.w3.org/2000/svg">
<g clip-path="url(#clip0_515_317)">
<path d="M290.5 236L312 248.5V273.5L290.5 286L269 273.5V248.5L290.5 236Z" fill="#3A4856"/>
<path d="M242.5 236L264 248.5V273.5L242.5 286L221 273.5V248.5L242.5 236Z" fill="#3A4856"/>
<path d="M231 287L241 292.75V304.25L231 310L221 304.25V292.75L231 287Z" fill="#3A4856"/>
<path d="M254 287L264 292.75V304.25L254 310L244 304.25V292.75L254 287Z" fill="#3A4856"/>
<path d="M279 287L289 292.75V304.25L279 310L269 304.25V292.75L279 287Z" fill="#3A4856"/>
<path d="M302 287L312 292.75V304.25L302 310L292 304.25V292.75L302 287Z" fill="#3A4856"/>
<path d="M27 138L48 150V174L27 186L6 174V150L27 138Z" fill="#3A4856"/>
<path d="M51 179L72 191V215L51 227L30 215V191L51 179Z" fill="#744AA0"/>
<path d="M74 138L95 150V174L74 186L53 174V150L74 138Z" fill="#3A4856"/>
<path d="M121 138L142 150V174L121 186L100 174V150L121 138Z" fill="#00AA95"/>
<path d="M215 138L236 150V174L215 186L194 174V150L215 138Z" fill="#00AA95"/>
<path d="M165 278.5L216 308V249L165 278.5Z" fill="#00AA95"/>
<path d="M250.301 145.475L320.441 186.075V104.875L250.301 145.475Z" fill="#FBE730"/>
<path d="M280 73L320 96V50L280 73Z" fill="#3A4856"/>
<path d="M122.969 216.826L188.792 254.864V178.789L122.969 216.826Z" fill="#F5F8FB" fill-opacity="0.1"/>
<path d="M53.6834 260.902L38.3066 269.805V252L53.6834 260.902Z" fill="#FBE730"/>
<path d="M15.3748 260.902L-0.00195312 269.805L-0.00195236 252L15.3748 260.902Z" fill="#FBE730"/>
<path d="M34.531 260.902L19.1543 269.805V252L34.531 260.902Z" fill="#744AA0"/>
<path d="M266 8.90235L281.377 0V17.8047L266 8.90235Z" fill="#FBE730"/>
<path d="M304.309 8.90235L319.685 0V17.8047L304.309 8.90235Z" fill="#FBE730"/>
<path d="M285.152 8.90235L300.529 0V17.8047L285.152 8.90235Z" fill="#744AA0"/>
<path d="M215.77 191.468L193.918 204.147V178.789L215.77 191.468Z" fill="#FBE730"/>
<path d="M240.32 204.148L218.469 216.827V191.469L240.32 204.148Z" fill="#FBE730"/>
<path d="M215.77 216.828L193.918 229.507V204.148L215.77 216.828Z" fill="#F5F8FB" fill-opacity="0.1"/>
<path d="M240.32 229.507L218.469 242.186V216.828L240.32 229.507Z" fill="#FBE730"/>
<path d="M231.001 283.058L221.02 288.858V277.258L231.001 283.058Z" fill="#744AA0"/>
<path d="M254 282.8L263.981 288.6V277L254 282.8Z" fill="#744AA0"/>
<path d="M278.968 283.058L268.986 288.858V277.258L278.968 283.058Z" fill="#744AA0"/>
<path d="M278.968 239.624L268.986 245.424V233.824L278.968 239.624Z" fill="#744AA0"/>
<path d="M302 283.058L311.981 288.858V277.258L302 283.058Z" fill="#744AA0"/>
<path d="M302 239.624L311.981 245.424V233.824L302 239.624Z" fill="#744AA0"/>
<path d="M215.77 242.187L193.918 254.866V229.508L215.77 242.187Z" fill="#FBE730"/>
<path d="M313.688 190.795L243.549 231.396V150.195L313.688 190.795Z" fill="#00AA95"/>
<path d="M313.688 100.6L243.549 141.2V60L313.688 100.6Z" fill="#744AA0"/>
<path d="M287.523 189.444L256.23 207.653V171.234L287.523 189.444Z" fill="#F5F8FB"/>
<path d="M124.865 152.082H130.309V172.044H124.865V152.082Z" fill="#F5F8FB"/>
<path d="M118.032 159.258H123.477V172.043H118.032V159.258Z" fill="#F5F8FB"/>
<path d="M111.197 165.238H116.641V172.043H111.197V165.238Z" fill="#F5F8FB"/>
<path d="M208.641 155.652H204.969V169.116H208.641V155.652Z" fill="#F5F8FB"/>
<path d="M217.859 155.652H214.188V169.116H217.859V155.652Z" fill="#F5F8FB"/>
<path d="M227.078 155.652H223.406V169.116H227.078V155.652Z" fill="#F5F8FB"/>
<path d="M222.469 153.117H218.797V171.652H222.469V153.117Z" fill="#F5F8FB"/>
<path d="M204.031 159.914H200.359V164.965H204.031V159.914Z" fill="#F5F8FB"/>
<path d="M213.246 159.914H209.574V164.965H213.246V159.914Z" fill="#F5F8FB"/>
<path d="M231.688 159.914H228.016V164.965H231.688V159.914Z" fill="#F5F8FB"/>
<path d="M168 138L189 150V174L168 186L147 174V150L168 138Z" fill="#00AA95"/>
<path d="M176.55 162.046V162.291C175.037 162.446 174.297 163.218 174.297 164.699V167.406C174.297 169.053 173.71 169.721 172.259 169.721H171.848V171.172H172.414C174.842 171.172 175.984 170.03 175.984 167.632V165.338C175.984 163.691 176.55 163.146 178.227 163.146V161.19C176.55 161.19 175.984 160.646 175.984 158.999V156.705C175.984 154.307 174.84 153.164 172.414 153.164H171.848V154.615H172.259C173.71 154.615 174.297 155.284 174.297 156.93V159.637C174.297 161.118 175.037 161.89 176.55 162.046Z" fill="#F5F8FB"/>
<path d="M158.829 162.046V162.291C160.342 162.446 161.083 163.218 161.083 164.699V167.406C161.083 169.053 161.67 169.721 163.121 169.721H163.532V171.172H162.966C160.538 171.172 159.395 170.03 159.395 167.632V165.338C159.395 163.691 158.829 163.146 157.152 163.146V161.19C158.829 161.19 159.395 160.646 159.395 158.999V156.705C159.395 154.307 160.539 153.164 162.966 153.164H163.532V154.617H163.121C161.67 154.617 161.083 155.285 161.083 156.932V159.637C161.083 161.12 160.342 161.892 158.829 162.046Z" fill="#F5F8FB"/>
<path d="M189 259.5L122 298V221L189 259.5Z" fill="#744AA0"/>
</g>
<defs>
<clipPath id="clip0_515_317">
<rect width="320" height="310" fill="white"/>
</clipPath>
</defs>
</svg>
