<svg width="898" height="648" viewBox="0 0 898 648" fill="none" xmlns="http://www.w3.org/2000/svg">
<g clip-path="url(#clip0_515_263)">
<path d="M599 663.5L258 860V467L599 663.5Z" fill="#744AA0"/>
<path d="M462 94L522 128.5V197.5L462 232L402 197.5V128.5L462 94Z" fill="#00AA95"/>
<path d="M328 94L388 128.5V197.5L328 232L268 197.5V128.5L328 94Z" fill="#00AA95"/>
<path d="M676 378L736 412.5V481.5L676 516L616 481.5V412.5L676 378Z" fill="#3A4856"/>
<path d="M644 521L672 537.25V569.75L644 586L616 569.75V537.25L644 521Z" fill="#3A4956"/>
<path d="M782 521L810 537.25V569.75L782 586L754 569.75V537.25L782 521Z" fill="#3A4956"/>
<path d="M708 521L736 537.25V569.75L708 586L680 569.75V537.25L708 521Z" fill="#3A4956"/>
<path d="M846 521L874 537.25V569.75L846 586L818 569.75V537.25L846 521Z" fill="#3A4956"/>
<path d="M676 595L736 629.5V698.5L676 733L616 698.5V629.5L676 595Z" fill="#744AA0"/>
<path d="M814 378L874 412.5V481.5L814 516L754 481.5V412.5L814 378Z" fill="#3A4856"/>
<path d="M814 595L874 629.5V698.5L814 733L754 698.5V629.5L814 595Z" fill="#744AA0"/>
<path d="M398.379 528.498L598.922 644.581V412.414L398.379 528.498Z" fill="#00AA95"/>
<path d="M697.652 116.611L898.195 232.694V0.527344L697.652 116.611Z" fill="#FBE730"/>
<path d="M333.59 320.623L521.792 429.379V211.867L333.59 320.623Z" fill="#FBE730"/>
<path d="M289.492 321.454L245.527 346.907V296L289.492 321.454Z" fill="#744AA0"/>
<path d="M179.965 321.454L136 346.907V296L179.965 321.454Z" fill="#744AA0"/>
<path d="M234.731 321.454L190.766 346.907V296L234.731 321.454Z" fill="#FBE730"/>
<path d="M599 247.5L536 284V211L599 247.5Z" fill="#FBE730"/>
<path d="M669.114 284.373L606.637 320.625V248.121L669.114 284.373Z" fill="#00AA95"/>
<path d="M599 320.5L536 357V284L599 320.5Z" fill="#744AA0"/>
<path d="M669.114 356.877L606.637 393.129V320.625L669.114 356.877Z" fill="#00AA95"/>
<path d="M645 509.5L616 526V493L645 509.5Z" fill="#624AA0"/>
<path d="M707 509L736 526V492L707 509Z" fill="#624AA0"/>
<path d="M782 509.5L754 526V493L782 509.5Z" fill="#624AA0"/>
<path d="M845 510L874 527V493L845 510Z" fill="#624AA0"/>
<path d="M599 393.5L536 430V357L599 393.5Z" fill="#FBE730"/>
<path d="M878.891 246.193L678.348 362.276V130.109L878.891 246.193Z" fill="#00AA95"/>
<path d="M806.075 243.337L716.602 295.401V191.273L806.075 243.337Z" fill="#F5F8FB"/>
<path d="M340.083 136H355.648V193.074H340.083V136Z" fill="#F5F8FB"/>
<path d="M320.544 156.516H336.109V193.071H320.544V156.516Z" fill="#F5F8FB"/>
<path d="M300.997 173.617H316.562V193.074H300.997V173.617Z" fill="#F5F8FB"/>
<path d="M596 94L656 128.5V197.5L596 232L536 197.5V128.5L596 94Z" fill="#00AA95"/>
<path d="M574.682 145.25H564.184V183.745H574.682V145.25Z" fill="#F5F8FB"/>
<path d="M601.038 145.25H590.539V183.745H601.038V145.25Z" fill="#F5F8FB"/>
<path d="M627.397 145.25H616.898V183.745H627.397V145.25Z" fill="#F5F8FB"/>
<path d="M614.217 138H603.719V190.993H614.217V138Z" fill="#F5F8FB"/>
<path d="M561.499 157.438H551V171.879H561.499V157.438Z" fill="#F5F8FB"/>
<path d="M587.862 157.438H577.363V171.879H587.862V157.438Z" fill="#F5F8FB"/>
<path d="M640.581 157.438H630.082V171.879H640.581V157.438Z" fill="#F5F8FB"/>
<path d="M485.922 163.394V164.095C481.597 164.539 479.479 166.747 479.479 170.982V178.72C479.479 183.429 477.801 185.34 473.652 185.34H472.477V189.489H474.095C481.037 189.489 484.304 186.222 484.304 179.366V172.807C484.304 168.098 485.922 166.54 490.717 166.54V160.949C485.922 160.949 484.304 159.391 484.304 154.682V148.123C484.304 141.267 481.033 138 474.095 138H472.477V142.149H473.652C477.801 142.149 479.479 144.06 479.479 148.769V156.507C479.479 160.742 481.597 162.95 485.922 163.394Z" fill="#F5F8FB"/>
<path d="M435.256 163.394V164.095C439.581 164.539 441.699 166.747 441.699 170.982V178.72C441.699 183.429 443.377 185.34 447.526 185.34H448.701V189.489H447.083C440.141 189.489 436.874 186.222 436.874 179.366V172.807C436.874 168.098 435.256 166.54 430.461 166.54V160.949C435.256 160.949 436.874 159.391 436.874 154.682V148.123C436.874 141.267 440.145 138 447.083 138H448.701V142.153H447.526C443.377 142.153 441.699 144.064 441.699 148.773V156.507C441.699 160.747 439.581 162.955 435.256 163.394Z" fill="#F5F8FB"/>
<path d="M493.592 538.002V535.858C495.49 534.023 497.122 532.391 498.488 530.962C499.874 529.511 500.941 528.199 501.688 527.026C502.434 525.831 502.808 524.722 502.808 523.698C502.808 522.631 502.52 521.778 501.944 521.138C501.368 520.498 500.536 520.178 499.448 520.178C498.658 520.178 497.933 520.402 497.272 520.85C496.632 521.298 496.034 521.831 495.48 522.45L493.432 520.402C494.37 519.399 495.341 518.631 496.344 518.098C497.346 517.543 498.541 517.266 499.928 517.266C501.89 517.266 503.448 517.831 504.6 518.962C505.773 520.092 506.36 521.607 506.36 523.506C506.36 524.7 506.018 525.927 505.336 527.186C504.674 528.423 503.778 529.692 502.648 530.994C501.538 532.295 500.312 533.66 498.968 535.09C499.501 535.047 500.077 535.004 500.696 534.962C501.314 534.898 501.869 534.866 502.36 534.866H507.352V538.002H493.592Z" fill="white"/>
<path d="M516.974 538.386C514.862 538.386 513.177 537.468 511.918 535.634C510.681 533.799 510.062 531.164 510.062 527.73C510.062 524.295 510.681 521.692 511.918 519.922C513.177 518.151 514.862 517.266 516.974 517.266C519.086 517.266 520.761 518.151 521.998 519.922C523.257 521.692 523.886 524.295 523.886 527.73C523.886 531.164 523.257 533.799 521.998 535.634C520.761 537.468 519.086 538.386 516.974 538.386ZM516.974 535.506C517.635 535.506 518.222 535.26 518.734 534.77C519.246 534.258 519.642 533.436 519.919 532.306C520.218 531.175 520.367 529.65 520.367 527.73C520.367 525.81 520.218 524.295 519.919 523.186C519.642 522.076 519.246 521.298 518.734 520.85C518.222 520.38 517.635 520.146 516.974 520.146C516.334 520.146 515.758 520.38 515.246 520.85C514.734 521.298 514.33 522.076 514.031 523.186C513.732 524.295 513.582 525.81 513.582 527.73C513.582 529.65 513.732 531.175 514.031 532.306C514.33 533.436 514.734 534.258 515.246 534.77C515.758 535.26 516.334 535.506 516.974 535.506Z" fill="white"/>
<path d="M526.404 538.002V535.858C528.303 534.023 529.935 532.391 531.3 530.962C532.687 529.511 533.753 528.199 534.5 527.026C535.247 525.831 535.62 524.722 535.62 523.698C535.62 522.631 535.332 521.778 534.756 521.138C534.18 520.498 533.348 520.178 532.26 520.178C531.471 520.178 530.745 520.402 530.084 520.85C529.444 521.298 528.847 521.831 528.292 522.45L526.244 520.402C527.183 519.399 528.153 518.631 529.156 518.098C530.159 517.543 531.353 517.266 532.74 517.266C534.703 517.266 536.26 517.831 537.412 518.962C538.585 520.092 539.172 521.607 539.172 523.506C539.172 524.7 538.831 525.927 538.148 527.186C537.487 528.423 536.591 529.692 535.46 530.994C534.351 532.295 533.124 533.66 531.78 535.09C532.313 535.047 532.889 535.004 533.508 534.962C534.127 534.898 534.681 534.866 535.172 534.866H540.164V538.002H526.404Z" fill="white"/>
<path d="M549.273 538.386C547.631 538.386 546.244 538.108 545.113 537.554C544.004 536.978 543.087 536.295 542.361 535.506L544.121 533.138C544.74 533.756 545.444 534.29 546.233 534.738C547.023 535.164 547.929 535.378 548.953 535.378C550.063 535.378 550.959 535.111 551.641 534.578C552.345 534.023 552.697 533.266 552.697 532.306C552.697 531.602 552.516 530.994 552.153 530.482C551.812 529.948 551.204 529.543 550.329 529.266C549.476 528.988 548.271 528.85 546.713 528.85V526.162C548.719 526.162 550.105 525.852 550.873 525.234C551.641 524.615 552.025 523.836 552.025 522.898C552.025 522.044 551.759 521.383 551.225 520.914C550.692 520.423 549.956 520.178 549.017 520.178C548.228 520.178 547.503 520.359 546.841 520.722C546.18 521.063 545.54 521.522 544.921 522.098L543.033 519.826C543.908 519.058 544.836 518.439 545.817 517.97C546.82 517.5 547.929 517.266 549.145 517.266C551.108 517.266 552.697 517.735 553.913 518.674C555.129 519.591 555.737 520.914 555.737 522.642C555.737 523.772 555.417 524.732 554.777 525.522C554.159 526.29 553.295 526.887 552.185 527.314V527.442C553.38 527.762 554.383 528.348 555.193 529.202C556.004 530.055 556.409 531.154 556.409 532.498C556.409 533.735 556.079 534.791 555.417 535.666C554.777 536.54 553.913 537.212 552.825 537.682C551.759 538.151 550.575 538.386 549.273 538.386Z" fill="white"/>
<path d="M60 94L120 128.5V197.5L60 232L0 197.5V128.5L60 94Z" fill="#3A4856"/>
<path d="M194 94L254 128.5V197.5L194 232L134 197.5V128.5L194 94Z" fill="#3A4856"/>
</g>
<defs>
<clipPath id="clip0_515_263">
<rect width="898" height="648" fill="white"/>
</clipPath>
</defs>
</svg>
