<svg width="63" height="70" viewBox="0 0 63 70" fill="none" xmlns="http://www.w3.org/2000/svg">
<path d="M0 8.75025V61.2518L62.9132 70.002V0L0 8.75025Z" fill="url(#paint0_radial_271_2225)"/>
<path fill-rule="evenodd" clip-rule="evenodd" d="M42.3233 25.1534C42.3233 28.4572 40.9666 29.6899 39.7475 30.2659L34.5022 32.0046V16.2482L38.3912 16.2481C41.1502 16.1085 42.1751 18.4513 42.3233 20.6706V25.1534ZM36.7349 18.2263V29.2825C40.4003 28.1236 40.3575 27.0857 40.3575 23.1932C40.3575 22.8391 40.3605 22.5085 40.3635 22.2003C40.3635 22.2003 40.3636 25.6445 40.3636 22.1964C40.3636 18.7484 39.8474 18.1742 36.7349 18.2263Z" fill="#F5F8FB"/>
<path d="M10.2057 23.0829V40.1425L7.88545 40.9265V16.2481H9.85381L14.8369 27.6815L15.2586 27.5955L20.2893 16.2481H22.2836V36.0607L19.937 36.8536V22.8938L19.8048 22.8655L15.9878 30.5237L14.0527 31.0057L10.3389 23.056L10.2057 23.0829Z" fill="#F5F8FB"/>
<path d="M47.4679 33.1152L55.0507 30.5422V27.9558L45.2207 31.3398V53.782L55.0507 53.7816V51.5533L47.4679 51.5405V42.999L53.741 41.7224V39.2454L47.4679 40.5326V33.1152Z" fill="#F5F8FB"/>
<path fill-rule="evenodd" clip-rule="evenodd" d="M32.4092 46.9587C32.3639 49.6952 31.9889 53.5349 28.4588 53.9573C24.2496 54.4608 24.4813 50.4004 24.4813 46.125C24.4813 42.4786 23.9308 37.8652 28.4326 36.2897C32.8716 34.6353 32.4216 40.8901 32.4216 43.2753C32.4216 44.5031 32.4104 45.7309 32.4092 46.9587ZM30.3654 48.1119L30.3704 43.9689C30.3704 39.7179 30.1478 38.124 29.1272 38.1333C26.8711 38.1537 26.5562 40.6241 26.5562 43.7174C26.559 44.4898 26.5562 45.2307 26.5562 45.8537C26.5562 50.6244 26.5703 52.0111 28.189 52.0111C30.1478 52.0111 30.3654 49.3744 30.3654 48.1119Z" fill="#F5F8FB"/>
<path d="M10.6337 53.9643C8.55919 54.0326 7.58085 52.6083 7.57031 50.7774L9.43408 50.4129C9.43408 51.1251 9.35187 52.38 10.4363 52.2793C11.5516 52.3283 11.652 51.2033 11.652 50.4004C11.652 49.8315 11.6052 48.8433 10.7263 49.0682C9.53544 49.2883 8.77242 49.2269 8.32511 48.8749C7.76041 48.4306 7.65002 47.5235 7.65002 46.107C7.58354 44.4396 8.73457 42.8605 10.4955 42.5703C12.5454 42.05 13.4841 43.7141 13.4841 45.4043L11.6195 45.735C11.6195 45.1592 11.6369 43.9017 10.6522 44.2136C9.67631 44.4232 9.52421 45.2387 9.49655 46.053C9.4577 47.2782 9.77817 47.6158 11.0014 47.3723C11.63 47.2275 12.3151 47.3569 12.8384 47.719C13.691 48.4235 13.5167 49.7441 13.5167 50.7194C13.5167 52.4697 12.7086 54.0294 10.6337 53.9643Z" fill="#F5F8FB"/>
<path d="M32.9592 32.5601V30.5421L27.3043 32.3391V26.4436L32.1228 25.3733V23.28L27.3043 24.1897V18.2474H32.9592V16.248H24.905V35.2823L32.9592 32.5601Z" fill="#F5F8FB"/>
<path fill-rule="evenodd" clip-rule="evenodd" d="M49.7511 27.3179L50.4757 23.8827L52.657 23.3397L53.2525 26.1346L54.7872 25.616L52.6291 16.2481H50.5474L47.8421 27.9629L49.7511 27.3179ZM51.5204 18.9317L51.7137 18.9165L52.3508 21.9048L50.8126 22.2879L51.5204 18.9317Z" fill="#F5F8FB"/>
<path d="M18.9757 52.0791C20.8654 51.793 20.7228 49.5026 20.7231 48.1119L22.7113 47.6974C22.7047 50.478 22.4267 53.4036 19.0644 53.9113C15.7435 54.413 15.1591 52.6225 15.1591 48.675V45.2303C15.2668 42.9482 15.8064 40.6918 18.9964 39.6441C19.8181 39.3701 20.7975 39.2124 21.5565 39.7179C22.8825 40.5528 22.7124 42.3862 22.7124 43.7174L20.6802 44.1602C20.6708 43.3097 20.6888 40.6508 19.0409 41.462C17.0119 42.1446 17.1408 44.9566 17.1408 46.6033C17.1452 51.7874 17.7742 52.2604 18.9757 52.0791Z" fill="#F5F8FB"/>
<path d="M46.5314 16.2483H44.7115V28.872L46.5314 28.2572V16.2483Z" fill="#F5F8FB"/>
<path fill-rule="evenodd" clip-rule="evenodd" d="M38.3699 33.2583C41.2385 32.2678 42.5997 33.9164 42.5993 36.5497C42.5993 37.7591 42.5993 38.7896 42.5993 39.9991C42.5634 43.2164 39.7706 44.3037 36.9673 44.843V53.7946H34.8365L34.8535 34.5204L38.3699 33.2583ZM40.6199 39.3741C40.6199 39.1791 40.6261 36.9528 40.6261 36.9528C40.6213 35.8189 39.7031 34.8469 38.5169 35.3989L36.9603 35.9492L36.9586 42.3761C38.4661 42.0696 40.6199 41.8741 40.6199 39.3741Z" fill="#F5F8FB"/>
<defs>
<radialGradient id="paint0_radial_271_2225" cx="0" cy="0" r="1" gradientUnits="userSpaceOnUse" gradientTransform="translate(31.4566) rotate(90) scale(70.002 57.7865)">
<stop stop-color="#00BCA5"/>
<stop offset="0.473958" stop-color="#00AA95"/>
<stop offset="1" stop-color="#009B88"/>
</radialGradient>
</defs>
</svg>
